<mxfile host="app.diagrams.net" modified="2023-02-22T09:15:14.886Z" agent="5.0 (Windows NT 10.0; Win64; x64) AppleWebKit/537.36 (KHTML, like Gecko) Chrome/110.0.0.0 Safari/537.36 Edg/110.0.1587.50" etag="PDr5gBfvRzshUW3G9OcS" version="20.8.22" type="github" pages="5">
  <diagram id="3VWrhjBb-zltgbo5dNTR" name="Use case">
    <mxGraphModel dx="1004" dy="573" grid="1" gridSize="10" guides="1" tooltips="1" connect="1" arrows="1" fold="1" page="1" pageScale="1" pageWidth="850" pageHeight="1100" math="0" shadow="0">
      <root>
        <mxCell id="0" />
        <mxCell id="1" parent="0" />
        <mxCell id="y4N2cc2ynRdOrsL_dpse-1" value="Student" style="shape=umlActor;verticalLabelPosition=bottom;verticalAlign=top;html=1;outlineConnect=0;" parent="1" vertex="1">
          <mxGeometry x="60" y="220" width="30" height="60" as="geometry" />
        </mxCell>
        <mxCell id="y4N2cc2ynRdOrsL_dpse-5" value="Admin" style="shape=umlActor;verticalLabelPosition=bottom;verticalAlign=top;html=1;outlineConnect=0;" parent="1" vertex="1">
          <mxGeometry x="610" y="290" width="30" height="60" as="geometry" />
        </mxCell>
        <mxCell id="y4N2cc2ynRdOrsL_dpse-6" value="" style="rounded=1;whiteSpace=wrap;html=1;" parent="1" vertex="1">
          <mxGeometry x="245" y="80" width="180" height="820" as="geometry" />
        </mxCell>
        <mxCell id="y4N2cc2ynRdOrsL_dpse-7" value="ระบบยืม คืนของ" style="text;html=1;strokeColor=none;fillColor=none;align=center;verticalAlign=middle;whiteSpace=wrap;rounded=0;" parent="1" vertex="1">
          <mxGeometry x="290" y="80" width="90" height="30" as="geometry" />
        </mxCell>
        <mxCell id="y4N2cc2ynRdOrsL_dpse-8" value="ยืมของ" style="ellipse;whiteSpace=wrap;html=1;" parent="1" vertex="1">
          <mxGeometry x="275" y="140" width="120" height="80" as="geometry" />
        </mxCell>
        <mxCell id="y4N2cc2ynRdOrsL_dpse-22" style="edgeStyle=orthogonalEdgeStyle;curved=1;rounded=0;orthogonalLoop=1;jettySize=auto;html=1;exitX=1;exitY=0.5;exitDx=0;exitDy=0;endArrow=none;endFill=0;" parent="1" source="y4N2cc2ynRdOrsL_dpse-9" target="y4N2cc2ynRdOrsL_dpse-5" edge="1">
          <mxGeometry relative="1" as="geometry" />
        </mxCell>
        <mxCell id="y4N2cc2ynRdOrsL_dpse-9" value="ดูข้อมูลการยืม" style="ellipse;whiteSpace=wrap;html=1;" parent="1" vertex="1">
          <mxGeometry x="275" y="350" width="120" height="80" as="geometry" />
        </mxCell>
        <mxCell id="y4N2cc2ynRdOrsL_dpse-18" style="edgeStyle=orthogonalEdgeStyle;curved=1;rounded=0;orthogonalLoop=1;jettySize=auto;html=1;exitX=0;exitY=0.5;exitDx=0;exitDy=0;endArrow=none;endFill=0;" parent="1" source="y4N2cc2ynRdOrsL_dpse-10" target="y4N2cc2ynRdOrsL_dpse-1" edge="1">
          <mxGeometry relative="1" as="geometry">
            <Array as="points">
              <mxPoint x="183" y="280" />
              <mxPoint x="183" y="250" />
            </Array>
          </mxGeometry>
        </mxCell>
        <mxCell id="y4N2cc2ynRdOrsL_dpse-10" value="คืนของ" style="ellipse;whiteSpace=wrap;html=1;" parent="1" vertex="1">
          <mxGeometry x="275" y="240" width="120" height="80" as="geometry" />
        </mxCell>
        <mxCell id="y4N2cc2ynRdOrsL_dpse-19" style="edgeStyle=orthogonalEdgeStyle;curved=1;rounded=0;orthogonalLoop=1;jettySize=auto;html=1;exitX=0;exitY=0.5;exitDx=0;exitDy=0;endArrow=none;endFill=0;" parent="1" source="y4N2cc2ynRdOrsL_dpse-11" edge="1">
          <mxGeometry relative="1" as="geometry">
            <mxPoint x="90" y="250" as="targetPoint" />
            <Array as="points">
              <mxPoint x="150" y="500" />
              <mxPoint x="150" y="250" />
            </Array>
          </mxGeometry>
        </mxCell>
        <mxCell id="y4N2cc2ynRdOrsL_dpse-11" value="สมัครสมาชิก" style="ellipse;whiteSpace=wrap;html=1;" parent="1" vertex="1">
          <mxGeometry x="275" y="460" width="120" height="80" as="geometry" />
        </mxCell>
        <mxCell id="y4N2cc2ynRdOrsL_dpse-20" style="edgeStyle=orthogonalEdgeStyle;curved=1;rounded=0;orthogonalLoop=1;jettySize=auto;html=1;exitX=0;exitY=0.5;exitDx=0;exitDy=0;endArrow=none;endFill=0;" parent="1" source="y4N2cc2ynRdOrsL_dpse-12" edge="1">
          <mxGeometry relative="1" as="geometry">
            <mxPoint x="90" y="250" as="targetPoint" />
            <Array as="points">
              <mxPoint x="120" y="600" />
              <mxPoint x="120" y="250" />
            </Array>
          </mxGeometry>
        </mxCell>
        <mxCell id="y4N2cc2ynRdOrsL_dpse-12" value="login ด้วยบัตร" style="ellipse;whiteSpace=wrap;html=1;" parent="1" vertex="1">
          <mxGeometry x="275" y="560" width="120" height="80" as="geometry" />
        </mxCell>
        <mxCell id="y4N2cc2ynRdOrsL_dpse-17" style="edgeStyle=orthogonalEdgeStyle;rounded=0;orthogonalLoop=1;jettySize=auto;html=1;curved=1;entryX=0;entryY=0.5;entryDx=0;entryDy=0;endArrow=none;endFill=0;" parent="1" source="y4N2cc2ynRdOrsL_dpse-1" target="y4N2cc2ynRdOrsL_dpse-8" edge="1">
          <mxGeometry relative="1" as="geometry">
            <mxPoint x="140" y="140" as="targetPoint" />
            <Array as="points">
              <mxPoint x="120" y="250" />
              <mxPoint x="120" y="180" />
            </Array>
          </mxGeometry>
        </mxCell>
        <mxCell id="y4N2cc2ynRdOrsL_dpse-24" style="edgeStyle=orthogonalEdgeStyle;curved=1;rounded=0;orthogonalLoop=1;jettySize=auto;html=1;exitX=1;exitY=0.5;exitDx=0;exitDy=0;endArrow=none;endFill=0;" parent="1" source="y4N2cc2ynRdOrsL_dpse-23" edge="1">
          <mxGeometry relative="1" as="geometry">
            <mxPoint x="610" y="320" as="targetPoint" />
          </mxGeometry>
        </mxCell>
        <mxCell id="y4N2cc2ynRdOrsL_dpse-23" value="อัพเดทจำนวนอุปกรณ์" style="ellipse;whiteSpace=wrap;html=1;" parent="1" vertex="1">
          <mxGeometry x="275" y="660" width="120" height="80" as="geometry" />
        </mxCell>
        <mxCell id="gc3N991Mp5eu1_evCTUe-2" style="rounded=0;orthogonalLoop=1;jettySize=auto;html=1;exitX=0;exitY=0.5;exitDx=0;exitDy=0;endArrow=none;endFill=0;startArrow=none;startFill=0;edgeStyle=orthogonalEdgeStyle;curved=1;" parent="1" source="gc3N991Mp5eu1_evCTUe-1" edge="1">
          <mxGeometry relative="1" as="geometry">
            <mxPoint x="90" y="250" as="targetPoint" />
          </mxGeometry>
        </mxCell>
        <mxCell id="gc3N991Mp5eu1_evCTUe-1" value="แจ้งเตือนคืนของ" style="ellipse;whiteSpace=wrap;html=1;" parent="1" vertex="1">
          <mxGeometry x="275" y="760" width="120" height="80" as="geometry" />
        </mxCell>
      </root>
    </mxGraphModel>
  </diagram>
  <diagram id="u4rTvfeDlOmpdTKJ3xF_" name="Class">
    <mxGraphModel dx="1105" dy="607" grid="1" gridSize="10" guides="1" tooltips="1" connect="1" arrows="1" fold="1" page="1" pageScale="1" pageWidth="850" pageHeight="1100" math="0" shadow="0">
      <root>
        <mxCell id="0" />
        <mxCell id="1" parent="0" />
        <mxCell id="IpOdExnLuLsjWHMrrgm5-1" value="LINE" style="swimlane;fontStyle=2;align=center;verticalAlign=top;childLayout=stackLayout;horizontal=1;startSize=26;horizontalStack=0;resizeParent=1;resizeLast=0;collapsible=1;marginBottom=0;rounded=0;shadow=0;strokeWidth=1;" parent="1" vertex="1">
          <mxGeometry x="40" y="30" width="170" height="190" as="geometry">
            <mxRectangle x="220" y="120" width="160" height="26" as="alternateBounds" />
          </mxGeometry>
        </mxCell>
        <mxCell id="IpOdExnLuLsjWHMrrgm5-3" value="ไลน์ไอดี : string" style="text;align=left;verticalAlign=top;spacingLeft=4;spacingRight=4;overflow=hidden;rotatable=0;points=[[0,0.5],[1,0.5]];portConstraint=eastwest;rounded=0;shadow=0;html=0;" parent="IpOdExnLuLsjWHMrrgm5-1" vertex="1">
          <mxGeometry y="26" width="170" height="26" as="geometry" />
        </mxCell>
        <mxCell id="IpOdExnLuLsjWHMrrgm5-2" value="ชื่อ-นามสกุล : string" style="text;align=left;verticalAlign=top;spacingLeft=4;spacingRight=4;overflow=hidden;rotatable=0;points=[[0,0.5],[1,0.5]];portConstraint=eastwest;" parent="IpOdExnLuLsjWHMrrgm5-1" vertex="1">
          <mxGeometry y="52" width="170" height="26" as="geometry" />
        </mxCell>
        <mxCell id="IpOdExnLuLsjWHMrrgm5-4" value="รหัสประจำตัวนักศึกษา : int" style="text;align=left;verticalAlign=top;spacingLeft=4;spacingRight=4;overflow=hidden;rotatable=0;points=[[0,0.5],[1,0.5]];portConstraint=eastwest;rounded=0;shadow=0;html=0;" parent="IpOdExnLuLsjWHMrrgm5-1" vertex="1">
          <mxGeometry y="78" width="170" height="26" as="geometry" />
        </mxCell>
        <mxCell id="FzFbDi6EWaJ1E4zKf64Q-23" value="สถานะการยืม-คืน : string" style="text;align=left;verticalAlign=top;spacingLeft=4;spacingRight=4;overflow=hidden;rotatable=0;points=[[0,0.5],[1,0.5]];portConstraint=eastwest;rounded=0;shadow=0;html=0;" parent="IpOdExnLuLsjWHMrrgm5-1" vertex="1">
          <mxGeometry y="104" width="170" height="26" as="geometry" />
        </mxCell>
        <mxCell id="IpOdExnLuLsjWHMrrgm5-5" value="" style="line;html=1;strokeWidth=1;align=left;verticalAlign=middle;spacingTop=-1;spacingLeft=3;spacingRight=3;rotatable=0;labelPosition=right;points=[];portConstraint=eastwest;" parent="IpOdExnLuLsjWHMrrgm5-1" vertex="1">
          <mxGeometry y="130" width="170" height="8" as="geometry" />
        </mxCell>
        <mxCell id="IpOdExnLuLsjWHMrrgm5-6" value="ระบบยืม-คืนอุปกรณ์ใน Shop" style="text;align=left;verticalAlign=top;spacingLeft=4;spacingRight=4;overflow=hidden;rotatable=0;points=[[0,0.5],[1,0.5]];portConstraint=eastwest;" parent="IpOdExnLuLsjWHMrrgm5-1" vertex="1">
          <mxGeometry y="138" width="170" height="26" as="geometry" />
        </mxCell>
        <mxCell id="FzFbDi6EWaJ1E4zKf64Q-29" value="ส่งข้อความเตือนการคืนผ่านระบบ" style="text;align=left;verticalAlign=top;spacingLeft=4;spacingRight=4;overflow=hidden;rotatable=0;points=[[0,0.5],[1,0.5]];portConstraint=eastwest;" parent="IpOdExnLuLsjWHMrrgm5-1" vertex="1">
          <mxGeometry y="164" width="170" height="26" as="geometry" />
        </mxCell>
        <mxCell id="IksQ-MjxEHPFQu97Wr9I-13" style="edgeStyle=orthogonalEdgeStyle;rounded=0;orthogonalLoop=1;jettySize=auto;html=1;entryX=0.5;entryY=0;entryDx=0;entryDy=0;" edge="1" parent="1" source="IpOdExnLuLsjWHMrrgm5-7" target="IksQ-MjxEHPFQu97Wr9I-5">
          <mxGeometry relative="1" as="geometry" />
        </mxCell>
        <mxCell id="IpOdExnLuLsjWHMrrgm5-7" value="นักศึกษา" style="swimlane;fontStyle=0;align=center;verticalAlign=top;childLayout=stackLayout;horizontal=1;startSize=26;horizontalStack=0;resizeParent=1;resizeLast=0;collapsible=1;marginBottom=0;rounded=0;shadow=0;strokeWidth=1;" parent="1" vertex="1">
          <mxGeometry x="310" y="42" width="160" height="164" as="geometry">
            <mxRectangle x="130" y="380" width="160" height="26" as="alternateBounds" />
          </mxGeometry>
        </mxCell>
        <mxCell id="IpOdExnLuLsjWHMrrgm5-8" value="รหัสนักศึกษา : int" style="text;align=left;verticalAlign=top;spacingLeft=4;spacingRight=4;overflow=hidden;rotatable=0;points=[[0,0.5],[1,0.5]];portConstraint=eastwest;" parent="IpOdExnLuLsjWHMrrgm5-7" vertex="1">
          <mxGeometry y="26" width="160" height="26" as="geometry" />
        </mxCell>
        <mxCell id="FzFbDi6EWaJ1E4zKf64Q-24" value="ชื่อ-นามสกุล : string" style="text;align=left;verticalAlign=top;spacingLeft=4;spacingRight=4;overflow=hidden;rotatable=0;points=[[0,0.5],[1,0.5]];portConstraint=eastwest;" parent="IpOdExnLuLsjWHMrrgm5-7" vertex="1">
          <mxGeometry y="52" width="160" height="26" as="geometry" />
        </mxCell>
        <mxCell id="IpOdExnLuLsjWHMrrgm5-9" value="ข้อมูลการติดต่อ : string" style="text;align=left;verticalAlign=top;spacingLeft=4;spacingRight=4;overflow=hidden;rotatable=0;points=[[0,0.5],[1,0.5]];portConstraint=eastwest;rounded=0;shadow=0;html=0;" parent="IpOdExnLuLsjWHMrrgm5-7" vertex="1">
          <mxGeometry y="78" width="160" height="26" as="geometry" />
        </mxCell>
        <mxCell id="IpOdExnLuLsjWHMrrgm5-10" value="" style="line;html=1;strokeWidth=1;align=left;verticalAlign=middle;spacingTop=-1;spacingLeft=3;spacingRight=3;rotatable=0;labelPosition=right;points=[];portConstraint=eastwest;" parent="IpOdExnLuLsjWHMrrgm5-7" vertex="1">
          <mxGeometry y="104" width="160" height="8" as="geometry" />
        </mxCell>
        <mxCell id="IpOdExnLuLsjWHMrrgm5-11" value="ให้สิทธิ์" style="text;align=left;verticalAlign=top;spacingLeft=4;spacingRight=4;overflow=hidden;rotatable=0;points=[[0,0.5],[1,0.5]];portConstraint=eastwest;fontStyle=4" parent="IpOdExnLuLsjWHMrrgm5-7" vertex="1">
          <mxGeometry y="112" width="160" height="26" as="geometry" />
        </mxCell>
        <mxCell id="IpOdExnLuLsjWHMrrgm5-12" value="ยืม - คืน อุปกรณ์ในสโตร์" style="text;align=left;verticalAlign=top;spacingLeft=4;spacingRight=4;overflow=hidden;rotatable=0;points=[[0,0.5],[1,0.5]];portConstraint=eastwest;" parent="IpOdExnLuLsjWHMrrgm5-7" vertex="1">
          <mxGeometry y="138" width="160" height="26" as="geometry" />
        </mxCell>
        <mxCell id="IksQ-MjxEHPFQu97Wr9I-21" style="edgeStyle=orthogonalEdgeStyle;rounded=0;orthogonalLoop=1;jettySize=auto;html=1;entryX=0.506;entryY=0.977;entryDx=0;entryDy=0;entryPerimeter=0;startArrow=none;startFill=0;endArrow=classic;endFill=1;" edge="1" parent="1" source="IpOdExnLuLsjWHMrrgm5-14" target="FzFbDi6EWaJ1E4zKf64Q-37">
          <mxGeometry relative="1" as="geometry" />
        </mxCell>
        <mxCell id="IpOdExnLuLsjWHMrrgm5-14" value="เจ้าหน้าที่" style="swimlane;fontStyle=0;align=center;verticalAlign=top;childLayout=stackLayout;horizontal=1;startSize=26;horizontalStack=0;resizeParent=1;resizeLast=0;collapsible=1;marginBottom=0;rounded=0;shadow=0;strokeWidth=1;" parent="1" vertex="1">
          <mxGeometry x="820" y="482" width="170" height="140" as="geometry">
            <mxRectangle x="340" y="380" width="170" height="26" as="alternateBounds" />
          </mxGeometry>
        </mxCell>
        <mxCell id="IpOdExnLuLsjWHMrrgm5-15" value="Admin User : string" style="text;align=left;verticalAlign=top;spacingLeft=4;spacingRight=4;overflow=hidden;rotatable=0;points=[[0,0.5],[1,0.5]];portConstraint=eastwest;" parent="IpOdExnLuLsjWHMrrgm5-14" vertex="1">
          <mxGeometry y="26" width="170" height="26" as="geometry" />
        </mxCell>
        <mxCell id="FzFbDi6EWaJ1E4zKf64Q-27" value="Admin Password : string" style="text;align=left;verticalAlign=top;spacingLeft=4;spacingRight=4;overflow=hidden;rotatable=0;points=[[0,0.5],[1,0.5]];portConstraint=eastwest;" parent="IpOdExnLuLsjWHMrrgm5-14" vertex="1">
          <mxGeometry y="52" width="170" height="26" as="geometry" />
        </mxCell>
        <mxCell id="IpOdExnLuLsjWHMrrgm5-16" value="" style="line;html=1;strokeWidth=1;align=left;verticalAlign=middle;spacingTop=-1;spacingLeft=3;spacingRight=3;rotatable=0;labelPosition=right;points=[];portConstraint=eastwest;" parent="IpOdExnLuLsjWHMrrgm5-14" vertex="1">
          <mxGeometry y="78" width="170" height="8" as="geometry" />
        </mxCell>
        <mxCell id="FzFbDi6EWaJ1E4zKf64Q-28" value="ตรวจสอบการยืม-คืน" style="text;align=left;verticalAlign=top;spacingLeft=4;spacingRight=4;overflow=hidden;rotatable=0;points=[[0,0.5],[1,0.5]];portConstraint=eastwest;" parent="IpOdExnLuLsjWHMrrgm5-14" vertex="1">
          <mxGeometry y="86" width="170" height="26" as="geometry" />
        </mxCell>
        <mxCell id="FzFbDi6EWaJ1E4zKf64Q-26" value="Update จำนวนอุปกรณ์ในสโตร์" style="text;align=left;verticalAlign=top;spacingLeft=4;spacingRight=4;overflow=hidden;rotatable=0;points=[[0,0.5],[1,0.5]];portConstraint=eastwest;" parent="IpOdExnLuLsjWHMrrgm5-14" vertex="1">
          <mxGeometry y="112" width="170" height="26" as="geometry" />
        </mxCell>
        <mxCell id="IksQ-MjxEHPFQu97Wr9I-17" style="edgeStyle=orthogonalEdgeStyle;rounded=0;orthogonalLoop=1;jettySize=auto;html=1;startArrow=classic;startFill=1;endArrow=none;endFill=0;entryX=1;entryY=0.5;entryDx=0;entryDy=0;" edge="1" parent="1" source="IpOdExnLuLsjWHMrrgm5-18" target="FzFbDi6EWaJ1E4zKf64Q-32">
          <mxGeometry relative="1" as="geometry">
            <mxPoint x="760" y="162" as="targetPoint" />
            <Array as="points">
              <mxPoint x="770" y="312" />
              <mxPoint x="770" y="133" />
            </Array>
          </mxGeometry>
        </mxCell>
        <mxCell id="IpOdExnLuLsjWHMrrgm5-18" value="สโตร์อุปกรณ์" style="swimlane;fontStyle=0;align=center;verticalAlign=top;childLayout=stackLayout;horizontal=1;startSize=26;horizontalStack=0;resizeParent=1;resizeLast=0;collapsible=1;marginBottom=0;rounded=0;shadow=0;strokeWidth=1;" parent="1" vertex="1">
          <mxGeometry x="820" y="242" width="170" height="164" as="geometry">
            <mxRectangle x="550" y="140" width="160" height="26" as="alternateBounds" />
          </mxGeometry>
        </mxCell>
        <mxCell id="IpOdExnLuLsjWHMrrgm5-19" value="รหัสอุปกรณ์ : int" style="text;align=left;verticalAlign=top;spacingLeft=4;spacingRight=4;overflow=hidden;rotatable=0;points=[[0,0.5],[1,0.5]];portConstraint=eastwest;" parent="IpOdExnLuLsjWHMrrgm5-18" vertex="1">
          <mxGeometry y="26" width="170" height="26" as="geometry" />
        </mxCell>
        <mxCell id="FzFbDi6EWaJ1E4zKf64Q-38" value="รายละเอียดอุปกรณ์ : string" style="text;align=left;verticalAlign=top;spacingLeft=4;spacingRight=4;overflow=hidden;rotatable=0;points=[[0,0.5],[1,0.5]];portConstraint=eastwest;" parent="IpOdExnLuLsjWHMrrgm5-18" vertex="1">
          <mxGeometry y="52" width="170" height="26" as="geometry" />
        </mxCell>
        <mxCell id="IpOdExnLuLsjWHMrrgm5-20" value="จำนวนอุปกรณ์ : int" style="text;align=left;verticalAlign=top;spacingLeft=4;spacingRight=4;overflow=hidden;rotatable=0;points=[[0,0.5],[1,0.5]];portConstraint=eastwest;rounded=0;shadow=0;html=0;" parent="IpOdExnLuLsjWHMrrgm5-18" vertex="1">
          <mxGeometry y="78" width="170" height="26" as="geometry" />
        </mxCell>
        <mxCell id="FzFbDi6EWaJ1E4zKf64Q-39" value="วัน เวลาที่ยืม-คืนอุปกรณ์ : string" style="text;align=left;verticalAlign=top;spacingLeft=4;spacingRight=4;overflow=hidden;rotatable=0;points=[[0,0.5],[1,0.5]];portConstraint=eastwest;rounded=0;shadow=0;html=0;" parent="IpOdExnLuLsjWHMrrgm5-18" vertex="1">
          <mxGeometry y="104" width="170" height="26" as="geometry" />
        </mxCell>
        <mxCell id="IpOdExnLuLsjWHMrrgm5-24" value="" style="line;html=1;strokeWidth=1;align=left;verticalAlign=middle;spacingTop=-1;spacingLeft=3;spacingRight=3;rotatable=0;labelPosition=right;points=[];portConstraint=eastwest;" parent="IpOdExnLuLsjWHMrrgm5-18" vertex="1">
          <mxGeometry y="130" width="170" height="8" as="geometry" />
        </mxCell>
        <mxCell id="FzFbDi6EWaJ1E4zKf64Q-37" value="บันทึกจำนวนอุปกรณ์ในสโตร์" style="text;align=left;verticalAlign=top;spacingLeft=4;spacingRight=4;overflow=hidden;rotatable=0;points=[[0,0.5],[1,0.5]];portConstraint=eastwest;" parent="IpOdExnLuLsjWHMrrgm5-18" vertex="1">
          <mxGeometry y="138" width="170" height="26" as="geometry" />
        </mxCell>
        <mxCell id="FzFbDi6EWaJ1E4zKf64Q-10" value="การยืม" style="swimlane;fontStyle=0;align=center;verticalAlign=top;childLayout=stackLayout;horizontal=1;startSize=26;horizontalStack=0;resizeParent=1;resizeLast=0;collapsible=1;marginBottom=0;rounded=0;shadow=0;strokeWidth=1;" parent="1" vertex="1">
          <mxGeometry x="550" y="42" width="170" height="170" as="geometry">
            <mxRectangle x="130" y="380" width="160" height="26" as="alternateBounds" />
          </mxGeometry>
        </mxCell>
        <mxCell id="FzFbDi6EWaJ1E4zKf64Q-11" value="รหัสนักศึกษา : int" style="text;align=left;verticalAlign=top;spacingLeft=4;spacingRight=4;overflow=hidden;rotatable=0;points=[[0,0.5],[1,0.5]];portConstraint=eastwest;" parent="FzFbDi6EWaJ1E4zKf64Q-10" vertex="1">
          <mxGeometry y="26" width="170" height="26" as="geometry" />
        </mxCell>
        <mxCell id="FzFbDi6EWaJ1E4zKf64Q-12" value="รหัสอุปกรณ์ที่ยืม : int" style="text;align=left;verticalAlign=top;spacingLeft=4;spacingRight=4;overflow=hidden;rotatable=0;points=[[0,0.5],[1,0.5]];portConstraint=eastwest;rounded=0;shadow=0;html=0;" parent="FzFbDi6EWaJ1E4zKf64Q-10" vertex="1">
          <mxGeometry y="52" width="170" height="26" as="geometry" />
        </mxCell>
        <mxCell id="IksQ-MjxEHPFQu97Wr9I-14" style="edgeStyle=orthogonalEdgeStyle;rounded=0;orthogonalLoop=1;jettySize=auto;html=1;endArrow=none;endFill=0;startArrow=classic;startFill=1;" edge="1" parent="FzFbDi6EWaJ1E4zKf64Q-10" source="FzFbDi6EWaJ1E4zKf64Q-32">
          <mxGeometry relative="1" as="geometry">
            <mxPoint x="-38" y="284" as="targetPoint" />
          </mxGeometry>
        </mxCell>
        <mxCell id="FzFbDi6EWaJ1E4zKf64Q-32" value="จำนวนอุปกรณ์ที่ยืม : int" style="text;align=left;verticalAlign=top;spacingLeft=4;spacingRight=4;overflow=hidden;rotatable=0;points=[[0,0.5],[1,0.5]];portConstraint=eastwest;rounded=0;shadow=0;html=0;" parent="FzFbDi6EWaJ1E4zKf64Q-10" vertex="1">
          <mxGeometry y="78" width="170" height="26" as="geometry" />
        </mxCell>
        <mxCell id="FzFbDi6EWaJ1E4zKf64Q-31" value="วัน เวลาที่ยืมอุปกรณ์ : string" style="text;align=left;verticalAlign=top;spacingLeft=4;spacingRight=4;overflow=hidden;rotatable=0;points=[[0,0.5],[1,0.5]];portConstraint=eastwest;rounded=0;shadow=0;html=0;" parent="FzFbDi6EWaJ1E4zKf64Q-10" vertex="1">
          <mxGeometry y="104" width="170" height="26" as="geometry" />
        </mxCell>
        <mxCell id="FzFbDi6EWaJ1E4zKf64Q-13" value="" style="line;html=1;strokeWidth=1;align=left;verticalAlign=middle;spacingTop=-1;spacingLeft=3;spacingRight=3;rotatable=0;labelPosition=right;points=[];portConstraint=eastwest;" parent="FzFbDi6EWaJ1E4zKf64Q-10" vertex="1">
          <mxGeometry y="130" width="170" height="8" as="geometry" />
        </mxCell>
        <mxCell id="FzFbDi6EWaJ1E4zKf64Q-15" value="Update จำนวนอุปกรณ์ในสโตร์" style="text;align=left;verticalAlign=top;spacingLeft=4;spacingRight=4;overflow=hidden;rotatable=0;points=[[0,0.5],[1,0.5]];portConstraint=eastwest;" parent="FzFbDi6EWaJ1E4zKf64Q-10" vertex="1">
          <mxGeometry y="138" width="170" height="32" as="geometry" />
        </mxCell>
        <mxCell id="FzFbDi6EWaJ1E4zKf64Q-16" value="การคืน" style="swimlane;fontStyle=0;align=center;verticalAlign=top;childLayout=stackLayout;horizontal=1;startSize=26;horizontalStack=0;resizeParent=1;resizeLast=0;collapsible=1;marginBottom=0;rounded=0;shadow=0;strokeWidth=1;" parent="1" vertex="1">
          <mxGeometry x="550" y="272" width="170" height="170" as="geometry">
            <mxRectangle x="130" y="380" width="160" height="26" as="alternateBounds" />
          </mxGeometry>
        </mxCell>
        <mxCell id="FzFbDi6EWaJ1E4zKf64Q-17" value="รหัสนักศึกษา : int" style="text;align=left;verticalAlign=top;spacingLeft=4;spacingRight=4;overflow=hidden;rotatable=0;points=[[0,0.5],[1,0.5]];portConstraint=eastwest;" parent="FzFbDi6EWaJ1E4zKf64Q-16" vertex="1">
          <mxGeometry y="26" width="170" height="26" as="geometry" />
        </mxCell>
        <mxCell id="FzFbDi6EWaJ1E4zKf64Q-33" value="รหัสอุปกรณ์ที่คืน : int" style="text;align=left;verticalAlign=top;spacingLeft=4;spacingRight=4;overflow=hidden;rotatable=0;points=[[0,0.5],[1,0.5]];portConstraint=eastwest;rounded=0;shadow=0;html=0;" parent="FzFbDi6EWaJ1E4zKf64Q-16" vertex="1">
          <mxGeometry y="52" width="170" height="26" as="geometry" />
        </mxCell>
        <mxCell id="IksQ-MjxEHPFQu97Wr9I-18" style="edgeStyle=orthogonalEdgeStyle;rounded=0;orthogonalLoop=1;jettySize=auto;html=1;startArrow=none;startFill=0;endArrow=none;endFill=0;" edge="1" parent="FzFbDi6EWaJ1E4zKf64Q-16" source="FzFbDi6EWaJ1E4zKf64Q-34">
          <mxGeometry relative="1" as="geometry">
            <mxPoint x="220" y="40" as="targetPoint" />
          </mxGeometry>
        </mxCell>
        <mxCell id="FzFbDi6EWaJ1E4zKf64Q-34" value="จำนวนอุปกรณ์ที่คืน : int" style="text;align=left;verticalAlign=top;spacingLeft=4;spacingRight=4;overflow=hidden;rotatable=0;points=[[0,0.5],[1,0.5]];portConstraint=eastwest;rounded=0;shadow=0;html=0;" parent="FzFbDi6EWaJ1E4zKf64Q-16" vertex="1">
          <mxGeometry y="78" width="170" height="26" as="geometry" />
        </mxCell>
        <mxCell id="FzFbDi6EWaJ1E4zKf64Q-35" value="วัน เวลาที่คืนอุปกรณ์ : string" style="text;align=left;verticalAlign=top;spacingLeft=4;spacingRight=4;overflow=hidden;rotatable=0;points=[[0,0.5],[1,0.5]];portConstraint=eastwest;rounded=0;shadow=0;html=0;" parent="FzFbDi6EWaJ1E4zKf64Q-16" vertex="1">
          <mxGeometry y="104" width="170" height="26" as="geometry" />
        </mxCell>
        <mxCell id="FzFbDi6EWaJ1E4zKf64Q-19" value="" style="line;html=1;strokeWidth=1;align=left;verticalAlign=middle;spacingTop=-1;spacingLeft=3;spacingRight=3;rotatable=0;labelPosition=right;points=[];portConstraint=eastwest;" parent="FzFbDi6EWaJ1E4zKf64Q-16" vertex="1">
          <mxGeometry y="130" width="170" height="8" as="geometry" />
        </mxCell>
        <mxCell id="FzFbDi6EWaJ1E4zKf64Q-36" value="Update จำนวนอุปกรณ์ในสโตร์" style="text;align=left;verticalAlign=top;spacingLeft=4;spacingRight=4;overflow=hidden;rotatable=0;points=[[0,0.5],[1,0.5]];portConstraint=eastwest;" parent="FzFbDi6EWaJ1E4zKf64Q-16" vertex="1">
          <mxGeometry y="138" width="170" height="26" as="geometry" />
        </mxCell>
        <mxCell id="IksQ-MjxEHPFQu97Wr9I-5" value="QR code ยืม/คืน" style="swimlane;fontStyle=0;align=center;verticalAlign=top;childLayout=stackLayout;horizontal=1;startSize=26;horizontalStack=0;resizeParent=1;resizeLast=0;collapsible=1;marginBottom=0;rounded=0;shadow=0;strokeWidth=1;" vertex="1" parent="1">
          <mxGeometry x="305" y="262" width="170" height="100" as="geometry">
            <mxRectangle x="550" y="140" width="160" height="26" as="alternateBounds" />
          </mxGeometry>
        </mxCell>
        <mxCell id="IksQ-MjxEHPFQu97Wr9I-12" value="ลิงค์ : string" style="text;html=1;strokeColor=none;fillColor=none;align=center;verticalAlign=middle;whiteSpace=wrap;rounded=0;" vertex="1" parent="IksQ-MjxEHPFQu97Wr9I-5">
          <mxGeometry y="26" width="170" height="30" as="geometry" />
        </mxCell>
        <mxCell id="IksQ-MjxEHPFQu97Wr9I-10" value="" style="line;html=1;strokeWidth=1;align=left;verticalAlign=middle;spacingTop=-1;spacingLeft=3;spacingRight=3;rotatable=0;labelPosition=right;points=[];portConstraint=eastwest;" vertex="1" parent="IksQ-MjxEHPFQu97Wr9I-5">
          <mxGeometry y="56" width="170" height="8" as="geometry" />
        </mxCell>
        <mxCell id="IksQ-MjxEHPFQu97Wr9I-11" value="ลิงค์เข้าสู่หน้ายืมคืนอุปกรณ์" style="text;align=left;verticalAlign=top;spacingLeft=4;spacingRight=4;overflow=hidden;rotatable=0;points=[[0,0.5],[1,0.5]];portConstraint=eastwest;" vertex="1" parent="IksQ-MjxEHPFQu97Wr9I-5">
          <mxGeometry y="64" width="170" height="26" as="geometry" />
        </mxCell>
        <mxCell id="FzFbDi6EWaJ1E4zKf64Q-46" style="edgeStyle=orthogonalEdgeStyle;rounded=0;jumpStyle=none;orthogonalLoop=1;jettySize=auto;html=1;startArrow=classic;startFill=1;endArrow=none;endFill=0;entryX=1.016;entryY=-0.077;entryDx=0;entryDy=0;entryPerimeter=0;" parent="1" source="FzFbDi6EWaJ1E4zKf64Q-34" edge="1" target="IksQ-MjxEHPFQu97Wr9I-11">
          <mxGeometry relative="1" as="geometry">
            <mxPoint x="500" y="412" as="targetPoint" />
          </mxGeometry>
        </mxCell>
        <mxCell id="IksQ-MjxEHPFQu97Wr9I-20" style="edgeStyle=orthogonalEdgeStyle;rounded=0;orthogonalLoop=1;jettySize=auto;html=1;startArrow=none;startFill=0;endArrow=classic;endFill=1;entryX=-0.011;entryY=0.053;entryDx=0;entryDy=0;entryPerimeter=0;" edge="1" parent="1" source="IpOdExnLuLsjWHMrrgm5-4" target="IpOdExnLuLsjWHMrrgm5-9">
          <mxGeometry relative="1" as="geometry">
            <mxPoint x="300" y="112" as="targetPoint" />
          </mxGeometry>
        </mxCell>
        <mxCell id="IksQ-MjxEHPFQu97Wr9I-26" style="edgeStyle=orthogonalEdgeStyle;rounded=0;orthogonalLoop=1;jettySize=auto;html=1;startArrow=none;startFill=0;endArrow=classic;endFill=1;" edge="1" parent="1" source="IksQ-MjxEHPFQu97Wr9I-22">
          <mxGeometry relative="1" as="geometry">
            <mxPoint x="125" y="218" as="targetPoint" />
          </mxGeometry>
        </mxCell>
        <mxCell id="IksQ-MjxEHPFQu97Wr9I-22" value="QR code Line" style="swimlane;fontStyle=0;align=center;verticalAlign=top;childLayout=stackLayout;horizontal=1;startSize=26;horizontalStack=0;resizeParent=1;resizeLast=0;collapsible=1;marginBottom=0;rounded=0;shadow=0;strokeWidth=1;" vertex="1" parent="1">
          <mxGeometry x="40" y="282" width="170" height="100" as="geometry">
            <mxRectangle x="550" y="140" width="160" height="26" as="alternateBounds" />
          </mxGeometry>
        </mxCell>
        <mxCell id="IksQ-MjxEHPFQu97Wr9I-23" value="ลิงค์ : string" style="text;html=1;strokeColor=none;fillColor=none;align=center;verticalAlign=middle;whiteSpace=wrap;rounded=0;" vertex="1" parent="IksQ-MjxEHPFQu97Wr9I-22">
          <mxGeometry y="26" width="170" height="30" as="geometry" />
        </mxCell>
        <mxCell id="IksQ-MjxEHPFQu97Wr9I-24" value="" style="line;html=1;strokeWidth=1;align=left;verticalAlign=middle;spacingTop=-1;spacingLeft=3;spacingRight=3;rotatable=0;labelPosition=right;points=[];portConstraint=eastwest;" vertex="1" parent="IksQ-MjxEHPFQu97Wr9I-22">
          <mxGeometry y="56" width="170" height="8" as="geometry" />
        </mxCell>
        <mxCell id="IksQ-MjxEHPFQu97Wr9I-25" value="ลิงค์ add Line OA" style="text;align=left;verticalAlign=top;spacingLeft=4;spacingRight=4;overflow=hidden;rotatable=0;points=[[0,0.5],[1,0.5]];portConstraint=eastwest;" vertex="1" parent="IksQ-MjxEHPFQu97Wr9I-22">
          <mxGeometry y="64" width="170" height="26" as="geometry" />
        </mxCell>
      </root>
    </mxGraphModel>
  </diagram>
  <diagram id="EidmPC0uFP7_u0bzcDjT" name="Sequence">
    <mxGraphModel dx="1004" dy="573" grid="1" gridSize="10" guides="1" tooltips="1" connect="1" arrows="1" fold="1" page="1" pageScale="1" pageWidth="850" pageHeight="1100" math="0" shadow="0">
      <root>
        <mxCell id="0" />
        <mxCell id="1" parent="0" />
        <mxCell id="qNVeNEgQSf5O8aHXfbmu-1" value="QR Code ไลน์" style="shape=umlLifeline;perimeter=lifelinePerimeter;whiteSpace=wrap;html=1;container=1;collapsible=0;recursiveResize=0;outlineConnect=0;rounded=1;shadow=0;comic=0;labelBackgroundColor=none;strokeWidth=1;fontFamily=Verdana;fontSize=12;align=center;" parent="1" vertex="1">
          <mxGeometry x="180" y="80" width="100" height="680" as="geometry" />
        </mxCell>
        <mxCell id="qNVeNEgQSf5O8aHXfbmu-25" value="เพิ่มเพื่อนในไลน์" style="html=1;verticalAlign=bottom;endArrow=block;labelBackgroundColor=none;fontFamily=Verdana;fontSize=12;edgeStyle=elbowEdgeStyle;elbow=vertical;" parent="qNVeNEgQSf5O8aHXfbmu-1" target="klU3hIJpuq0NnCQ6F0qY-1" edge="1">
          <mxGeometry x="-0.0279" relative="1" as="geometry">
            <mxPoint x="50" y="120.45454545454538" as="sourcePoint" />
            <mxPoint x="200" y="120.00000000000011" as="targetPoint" />
            <Array as="points">
              <mxPoint x="-60" y="120" />
            </Array>
            <mxPoint as="offset" />
          </mxGeometry>
        </mxCell>
        <mxCell id="99qToqwH9r9HCwicPGfl-4" value="" style="html=1;points=[];perimeter=orthogonalPerimeter;outlineConnect=0;targetShapes=umlLifeline;portConstraint=eastwest;newEdgeStyle={&quot;edgeStyle&quot;:&quot;elbowEdgeStyle&quot;,&quot;elbow&quot;:&quot;vertical&quot;,&quot;curved&quot;:0,&quot;rounded&quot;:0};" parent="qNVeNEgQSf5O8aHXfbmu-1" vertex="1">
          <mxGeometry x="45" y="90" width="10" height="150" as="geometry" />
        </mxCell>
        <mxCell id="qNVeNEgQSf5O8aHXfbmu-3" value="QR Code อุปกรณ์" style="shape=umlLifeline;perimeter=lifelinePerimeter;whiteSpace=wrap;html=1;container=1;collapsible=0;recursiveResize=0;outlineConnect=0;rounded=1;shadow=0;comic=0;labelBackgroundColor=none;strokeWidth=1;fontFamily=Verdana;fontSize=12;align=center;" parent="1" vertex="1">
          <mxGeometry x="460" y="80" width="110" height="680" as="geometry" />
        </mxCell>
        <mxCell id="99qToqwH9r9HCwicPGfl-7" value="" style="html=1;points=[];perimeter=orthogonalPerimeter;outlineConnect=0;targetShapes=umlLifeline;portConstraint=eastwest;newEdgeStyle={&quot;edgeStyle&quot;:&quot;elbowEdgeStyle&quot;,&quot;elbow&quot;:&quot;vertical&quot;,&quot;curved&quot;:0,&quot;rounded&quot;:0};" parent="qNVeNEgQSf5O8aHXfbmu-3" vertex="1">
          <mxGeometry x="50" y="130" width="10" height="100" as="geometry" />
        </mxCell>
        <mxCell id="99qToqwH9r9HCwicPGfl-9" value="" style="html=1;points=[];perimeter=orthogonalPerimeter;outlineConnect=0;targetShapes=umlLifeline;portConstraint=eastwest;newEdgeStyle={&quot;edgeStyle&quot;:&quot;elbowEdgeStyle&quot;,&quot;elbow&quot;:&quot;vertical&quot;,&quot;curved&quot;:0,&quot;rounded&quot;:0};" parent="qNVeNEgQSf5O8aHXfbmu-3" vertex="1">
          <mxGeometry x="50" y="450" width="10" height="70" as="geometry" />
        </mxCell>
        <mxCell id="qNVeNEgQSf5O8aHXfbmu-5" value="สโตร์อุปกรณ์" style="shape=umlLifeline;perimeter=lifelinePerimeter;whiteSpace=wrap;html=1;container=1;collapsible=0;recursiveResize=0;outlineConnect=0;rounded=1;shadow=0;comic=0;labelBackgroundColor=none;strokeWidth=1;fontFamily=Verdana;fontSize=12;align=center;" parent="1" vertex="1">
          <mxGeometry x="590" y="80" width="100" height="680" as="geometry" />
        </mxCell>
        <mxCell id="klU3hIJpuq0NnCQ6F0qY-19" value="อัปเดตจำนวนอุปกรณ์" style="text;html=1;align=center;verticalAlign=middle;resizable=0;points=[];autosize=1;strokeColor=none;fillColor=none;" parent="qNVeNEgQSf5O8aHXfbmu-5" vertex="1">
          <mxGeometry x="-80" y="479" width="130" height="30" as="geometry" />
        </mxCell>
        <mxCell id="99qToqwH9r9HCwicPGfl-6" value="" style="html=1;points=[];perimeter=orthogonalPerimeter;outlineConnect=0;targetShapes=umlLifeline;portConstraint=eastwest;newEdgeStyle={&quot;edgeStyle&quot;:&quot;elbowEdgeStyle&quot;,&quot;elbow&quot;:&quot;vertical&quot;,&quot;curved&quot;:0,&quot;rounded&quot;:0};" parent="qNVeNEgQSf5O8aHXfbmu-5" vertex="1">
          <mxGeometry x="45" y="160" width="10" height="80" as="geometry" />
        </mxCell>
        <mxCell id="qNVeNEgQSf5O8aHXfbmu-6" value="เจ้าหน้าที่" style="shape=umlLifeline;perimeter=lifelinePerimeter;whiteSpace=wrap;html=1;container=1;collapsible=0;recursiveResize=0;outlineConnect=0;rounded=1;shadow=0;comic=0;labelBackgroundColor=none;strokeWidth=1;fontFamily=Verdana;fontSize=12;align=center;size=30;" parent="1" vertex="1">
          <mxGeometry x="725" y="80" width="100" height="680" as="geometry" />
        </mxCell>
        <mxCell id="qNVeNEgQSf5O8aHXfbmu-9" value="นักศึกษา" style="shape=umlLifeline;perimeter=lifelinePerimeter;whiteSpace=wrap;html=1;container=1;collapsible=0;recursiveResize=0;outlineConnect=0;rounded=1;shadow=0;comic=0;labelBackgroundColor=none;strokeWidth=1;fontFamily=Verdana;fontSize=12;align=center;" parent="1" vertex="1">
          <mxGeometry x="40" y="80" width="110" height="680" as="geometry" />
        </mxCell>
        <mxCell id="qNVeNEgQSf5O8aHXfbmu-24" value="แสกนQR Code" style="html=1;verticalAlign=bottom;endArrow=block;labelBackgroundColor=none;fontFamily=Verdana;fontSize=12;edgeStyle=elbowEdgeStyle;elbow=vertical;" parent="qNVeNEgQSf5O8aHXfbmu-9" source="qNVeNEgQSf5O8aHXfbmu-9" edge="1">
          <mxGeometry relative="1" as="geometry">
            <mxPoint x="60" y="100" as="sourcePoint" />
            <mxPoint x="190" y="100" as="targetPoint" />
            <mxPoint as="offset" />
          </mxGeometry>
        </mxCell>
        <mxCell id="klU3hIJpuq0NnCQ6F0qY-1" value="ไลน์" style="shape=umlLifeline;perimeter=lifelinePerimeter;whiteSpace=wrap;html=1;container=1;collapsible=0;recursiveResize=0;outlineConnect=0;rounded=1;shadow=0;comic=0;labelBackgroundColor=none;strokeWidth=1;fontFamily=Verdana;fontSize=12;align=center;" parent="1" vertex="1">
          <mxGeometry x="320" y="80" width="110" height="680" as="geometry" />
        </mxCell>
        <mxCell id="2jsyJ8hcRhv8ws4spV2l-8" value="ส่งข้อมูล วันและเวลา&lt;br&gt;ในการส่งคืนอุปกรณ์" style="text;html=1;align=center;verticalAlign=middle;resizable=0;points=[];autosize=1;strokeColor=none;fillColor=none;" parent="klU3hIJpuq0NnCQ6F0qY-1" vertex="1">
          <mxGeometry x="-80" y="164" width="130" height="40" as="geometry" />
        </mxCell>
        <mxCell id="99qToqwH9r9HCwicPGfl-5" value="" style="html=1;points=[];perimeter=orthogonalPerimeter;outlineConnect=0;targetShapes=umlLifeline;portConstraint=eastwest;newEdgeStyle={&quot;edgeStyle&quot;:&quot;elbowEdgeStyle&quot;,&quot;elbow&quot;:&quot;vertical&quot;,&quot;curved&quot;:0,&quot;rounded&quot;:0};" parent="klU3hIJpuq0NnCQ6F0qY-1" vertex="1">
          <mxGeometry x="50" y="110" width="10" height="130" as="geometry" />
        </mxCell>
        <mxCell id="qNVeNEgQSf5O8aHXfbmu-12" value="เข้าหน้าแสกน QR code" style="html=1;verticalAlign=bottom;endArrow=block;labelBackgroundColor=none;fontFamily=Verdana;fontSize=12;edgeStyle=elbowEdgeStyle;elbow=vertical;" parent="1" source="klU3hIJpuq0NnCQ6F0qY-1" target="qNVeNEgQSf5O8aHXfbmu-3" edge="1">
          <mxGeometry x="-0.0528" relative="1" as="geometry">
            <mxPoint x="380" y="210" as="sourcePoint" />
            <Array as="points">
              <mxPoint x="450" y="220" />
            </Array>
            <mxPoint x="499" y="215" as="targetPoint" />
            <mxPoint as="offset" />
          </mxGeometry>
        </mxCell>
        <mxCell id="klU3hIJpuq0NnCQ6F0qY-2" value="" style="endArrow=none;html=1;rounded=0;startArrow=classic;startFill=1;endFill=0;" parent="1" source="qNVeNEgQSf5O8aHXfbmu-5" target="qNVeNEgQSf5O8aHXfbmu-3" edge="1">
          <mxGeometry width="50" height="50" relative="1" as="geometry">
            <mxPoint x="570" y="290" as="sourcePoint" />
            <mxPoint x="620" y="240" as="targetPoint" />
            <Array as="points">
              <mxPoint x="580" y="250" />
            </Array>
          </mxGeometry>
        </mxCell>
        <mxCell id="klU3hIJpuq0NnCQ6F0qY-3" value="อัพเดทจำนวนอุปกรณ์" style="text;html=1;align=center;verticalAlign=middle;resizable=0;points=[];autosize=1;strokeColor=none;fillColor=none;" parent="1" vertex="1">
          <mxGeometry x="510" y="215" width="130" height="30" as="geometry" />
        </mxCell>
        <mxCell id="klU3hIJpuq0NnCQ6F0qY-5" value="" style="endArrow=classic;html=1;rounded=0;" parent="1" edge="1">
          <mxGeometry width="50" height="50" relative="1" as="geometry">
            <mxPoint x="374.5000000000002" y="291" as="sourcePoint" />
            <mxPoint x="94.66666666666663" y="291" as="targetPoint" />
            <Array as="points">
              <mxPoint x="200" y="291" />
            </Array>
          </mxGeometry>
        </mxCell>
        <mxCell id="klU3hIJpuq0NnCQ6F0qY-11" value="" style="endArrow=classic;html=1;rounded=0;" parent="1" edge="1">
          <mxGeometry width="50" height="50" relative="1" as="geometry">
            <mxPoint x="374.5000000000002" y="451.0000000000001" as="sourcePoint" />
            <mxPoint x="94.66666666666663" y="451.0000000000001" as="targetPoint" />
            <Array as="points">
              <mxPoint x="320" y="451" />
            </Array>
          </mxGeometry>
        </mxCell>
        <mxCell id="klU3hIJpuq0NnCQ6F0qY-13" value="แจ้งเตือนใกล้&lt;br&gt;ครบกำหนดคืนอุปกรณ์" style="text;html=1;align=center;verticalAlign=middle;resizable=0;points=[];autosize=1;strokeColor=none;fillColor=none;" parent="1" vertex="1">
          <mxGeometry x="240" y="398" width="130" height="40" as="geometry" />
        </mxCell>
        <mxCell id="klU3hIJpuq0NnCQ6F0qY-14" value="" style="endArrow=classic;html=1;rounded=0;" parent="1" source="qNVeNEgQSf5O8aHXfbmu-9" target="qNVeNEgQSf5O8aHXfbmu-3" edge="1">
          <mxGeometry width="50" height="50" relative="1" as="geometry">
            <mxPoint x="150" y="590" as="sourcePoint" />
            <mxPoint x="200" y="540" as="targetPoint" />
            <Array as="points">
              <mxPoint x="320" y="540" />
            </Array>
          </mxGeometry>
        </mxCell>
        <mxCell id="klU3hIJpuq0NnCQ6F0qY-15" value="นำอุปกรณ์ไปสแกน QR Code" style="text;html=1;align=center;verticalAlign=middle;resizable=0;points=[];autosize=1;strokeColor=none;fillColor=none;" parent="1" vertex="1">
          <mxGeometry x="90" y="500" width="170" height="30" as="geometry" />
        </mxCell>
        <mxCell id="klU3hIJpuq0NnCQ6F0qY-21" value="" style="endArrow=classic;html=1;rounded=0;" parent="1" target="qNVeNEgQSf5O8aHXfbmu-5" edge="1">
          <mxGeometry width="50" height="50" relative="1" as="geometry">
            <mxPoint x="514.6666666666667" y="594" as="sourcePoint" />
            <mxPoint x="634.5000000000002" y="594" as="targetPoint" />
            <Array as="points">
              <mxPoint x="610" y="594" />
            </Array>
          </mxGeometry>
        </mxCell>
        <mxCell id="klU3hIJpuq0NnCQ6F0qY-22" value="" style="endArrow=classic;html=1;rounded=0;" parent="1" source="qNVeNEgQSf5O8aHXfbmu-6" target="qNVeNEgQSf5O8aHXfbmu-5" edge="1">
          <mxGeometry width="50" height="50" relative="1" as="geometry">
            <mxPoint x="650" y="770" as="sourcePoint" />
            <mxPoint x="700" y="720" as="targetPoint" />
            <Array as="points">
              <mxPoint x="690" y="710" />
            </Array>
          </mxGeometry>
        </mxCell>
        <mxCell id="klU3hIJpuq0NnCQ6F0qY-23" value="เปลี่ยนจำนวนอุปกรณ์" style="text;html=1;align=center;verticalAlign=middle;resizable=0;points=[];autosize=1;strokeColor=none;fillColor=none;" parent="1" vertex="1">
          <mxGeometry x="645" y="710" width="130" height="30" as="geometry" />
        </mxCell>
        <mxCell id="klU3hIJpuq0NnCQ6F0qY-24" value="[กรณีอุปกรณ์ชำรุด]" style="text;html=1;align=center;verticalAlign=middle;resizable=0;points=[];autosize=1;strokeColor=none;fillColor=none;" parent="1" vertex="1">
          <mxGeometry x="650" y="680" width="120" height="30" as="geometry" />
        </mxCell>
      </root>
    </mxGraphModel>
  </diagram>
  <diagram id="-vgLSRRuo1_jRNdSqRWT" name="Activity">
    <mxGraphModel dx="1050" dy="573" grid="1" gridSize="10" guides="1" tooltips="1" connect="1" arrows="1" fold="1" page="1" pageScale="1" pageWidth="850" pageHeight="1100" math="0" shadow="0">
      <root>
        <mxCell id="0" />
        <mxCell id="1" parent="0" />
        <mxCell id="Vdyso5Q53oxlfCYmZ2aa-8" value="" style="group" vertex="1" connectable="0" parent="1">
          <mxGeometry x="40" y="150" width="920" height="440" as="geometry" />
        </mxCell>
        <mxCell id="Vdyso5Q53oxlfCYmZ2aa-5" value="นักศึกษา" style="swimlane;whiteSpace=wrap;html=1;" vertex="1" parent="Vdyso5Q53oxlfCYmZ2aa-8">
          <mxGeometry width="306.66666666666663" height="440" as="geometry" />
        </mxCell>
        <mxCell id="vHV5yflAuKv_XINNY09a-151" value="คืน" style="rounded=1;whiteSpace=wrap;html=1;absoluteArcSize=1;arcSize=14;strokeWidth=2;" parent="Vdyso5Q53oxlfCYmZ2aa-5" vertex="1">
          <mxGeometry x="30" y="370" width="100" height="40" as="geometry" />
        </mxCell>
        <mxCell id="KMeKdPMiGGfihV731lzE-4" value="นำรายการอุปกรณ์ที่จะยืมมาสแกน" style="rounded=1;whiteSpace=wrap;html=1;absoluteArcSize=1;arcSize=14;strokeWidth=2;" parent="Vdyso5Q53oxlfCYmZ2aa-5" vertex="1">
          <mxGeometry x="90" y="50" width="130" height="40" as="geometry" />
        </mxCell>
        <mxCell id="vHV5yflAuKv_XINNY09a-150" value="สแกน QR Code ยืม" style="rounded=1;whiteSpace=wrap;html=1;absoluteArcSize=1;arcSize=14;strokeWidth=2;" parent="Vdyso5Q53oxlfCYmZ2aa-5" vertex="1">
          <mxGeometry x="95" y="130" width="120" height="40" as="geometry" />
        </mxCell>
        <mxCell id="KMeKdPMiGGfihV731lzE-6" value="" style="endArrow=classic;html=1;rounded=0;entryX=0.5;entryY=0;entryDx=0;entryDy=0;exitX=0.5;exitY=1;exitDx=0;exitDy=0;" parent="Vdyso5Q53oxlfCYmZ2aa-5" edge="1" target="vHV5yflAuKv_XINNY09a-150" source="KMeKdPMiGGfihV731lzE-4">
          <mxGeometry width="50" height="50" relative="1" as="geometry">
            <mxPoint x="250" y="69.5" as="sourcePoint" />
            <mxPoint x="320" y="69.5" as="targetPoint" />
          </mxGeometry>
        </mxCell>
        <mxCell id="Vdyso5Q53oxlfCYmZ2aa-13" value="ได้รับอุปกรณ์" style="rounded=1;whiteSpace=wrap;html=1;absoluteArcSize=1;arcSize=14;strokeWidth=2;" vertex="1" parent="Vdyso5Q53oxlfCYmZ2aa-5">
          <mxGeometry x="170" y="210" width="116.67" height="40" as="geometry" />
        </mxCell>
        <mxCell id="Vdyso5Q53oxlfCYmZ2aa-16" value="สแกน QR Code คืน" style="rounded=1;whiteSpace=wrap;html=1;absoluteArcSize=1;arcSize=14;strokeWidth=2;" vertex="1" parent="Vdyso5Q53oxlfCYmZ2aa-5">
          <mxGeometry x="160" y="370" width="120" height="40" as="geometry" />
        </mxCell>
        <mxCell id="Vdyso5Q53oxlfCYmZ2aa-25" value="" style="endArrow=classic;html=1;rounded=0;exitX=0;exitY=0.5;exitDx=0;exitDy=0;entryX=1;entryY=0.5;entryDx=0;entryDy=0;" edge="1" parent="Vdyso5Q53oxlfCYmZ2aa-5" source="Vdyso5Q53oxlfCYmZ2aa-16" target="vHV5yflAuKv_XINNY09a-151">
          <mxGeometry width="50" height="50" relative="1" as="geometry">
            <mxPoint x="410" y="220" as="sourcePoint" />
            <mxPoint x="460" y="170" as="targetPoint" />
          </mxGeometry>
        </mxCell>
        <mxCell id="Vdyso5Q53oxlfCYmZ2aa-26" value="" style="endArrow=classic;html=1;rounded=0;exitX=0.5;exitY=0;exitDx=0;exitDy=0;entryX=0.5;entryY=1;entryDx=0;entryDy=0;entryPerimeter=0;" edge="1" parent="Vdyso5Q53oxlfCYmZ2aa-5" source="vHV5yflAuKv_XINNY09a-151" target="Vdyso5Q53oxlfCYmZ2aa-22">
          <mxGeometry width="50" height="50" relative="1" as="geometry">
            <mxPoint x="410" y="220" as="sourcePoint" />
            <mxPoint x="460" y="170" as="targetPoint" />
          </mxGeometry>
        </mxCell>
        <mxCell id="Vdyso5Q53oxlfCYmZ2aa-21" value="" style="group" vertex="1" connectable="0" parent="Vdyso5Q53oxlfCYmZ2aa-5">
          <mxGeometry x="60" y="210" width="40" height="40" as="geometry" />
        </mxCell>
        <mxCell id="Vdyso5Q53oxlfCYmZ2aa-22" value="" style="verticalLabelPosition=bottom;verticalAlign=top;html=1;shape=mxgraph.flowchart.on-page_reference;" vertex="1" parent="Vdyso5Q53oxlfCYmZ2aa-21">
          <mxGeometry width="40" height="40" as="geometry" />
        </mxCell>
        <mxCell id="Vdyso5Q53oxlfCYmZ2aa-23" value="" style="verticalLabelPosition=bottom;verticalAlign=top;html=1;shape=mxgraph.flowchart.on-page_reference;" vertex="1" parent="Vdyso5Q53oxlfCYmZ2aa-21">
          <mxGeometry x="10" y="10" width="20" height="20" as="geometry" />
        </mxCell>
        <mxCell id="KMeKdPMiGGfihV731lzE-5" value="" style="endArrow=classic;html=1;rounded=0;exitX=1;exitY=0.5;exitDx=0;exitDy=0;exitPerimeter=0;entryX=0;entryY=0.5;entryDx=0;entryDy=0;" parent="Vdyso5Q53oxlfCYmZ2aa-5" edge="1" target="KMeKdPMiGGfihV731lzE-4" source="KMeKdPMiGGfihV731lzE-2">
          <mxGeometry width="50" height="50" relative="1" as="geometry">
            <mxPoint x="40" y="69.5" as="sourcePoint" />
            <mxPoint x="120" y="69.5" as="targetPoint" />
          </mxGeometry>
        </mxCell>
        <mxCell id="Vdyso5Q53oxlfCYmZ2aa-20" value="" style="group" vertex="1" connectable="0" parent="Vdyso5Q53oxlfCYmZ2aa-5">
          <mxGeometry x="20" y="50" width="40" height="40" as="geometry" />
        </mxCell>
        <mxCell id="KMeKdPMiGGfihV731lzE-2" value="" style="verticalLabelPosition=bottom;verticalAlign=top;html=1;shape=mxgraph.flowchart.on-page_reference;" parent="Vdyso5Q53oxlfCYmZ2aa-20" vertex="1">
          <mxGeometry width="40" height="40" as="geometry" />
        </mxCell>
        <mxCell id="HCo9KH4Uc4G2conOYqk8-6" value="" style="verticalLabelPosition=bottom;verticalAlign=top;html=1;shape=mxgraph.flowchart.on-page_reference;" parent="Vdyso5Q53oxlfCYmZ2aa-20" vertex="1">
          <mxGeometry x="10" y="10" width="20" height="20" as="geometry" />
        </mxCell>
        <mxCell id="Vdyso5Q53oxlfCYmZ2aa-6" value="แอดมิน" style="swimlane;whiteSpace=wrap;html=1;" vertex="1" parent="Vdyso5Q53oxlfCYmZ2aa-8">
          <mxGeometry x="306.66666666666663" width="306.66666666666663" height="440" as="geometry" />
        </mxCell>
        <mxCell id="HCo9KH4Uc4G2conOYqk8-16" value="ให้ยืมอูปกรณ์" style="rounded=1;whiteSpace=wrap;html=1;absoluteArcSize=1;arcSize=14;strokeWidth=2;" parent="Vdyso5Q53oxlfCYmZ2aa-6" vertex="1">
          <mxGeometry x="103.33333333333337" y="210" width="100" height="40" as="geometry" />
        </mxCell>
        <mxCell id="Vdyso5Q53oxlfCYmZ2aa-7" value="ระบบ" style="swimlane;whiteSpace=wrap;html=1;" vertex="1" parent="Vdyso5Q53oxlfCYmZ2aa-8">
          <mxGeometry x="613.3333333333333" width="306.66666666666663" height="440" as="geometry" />
        </mxCell>
        <mxCell id="cNE5Cq7i259optHmm0gu-1" value="แจ้งกำหนดคืนอุปกรณ์" style="rounded=1;whiteSpace=wrap;html=1;absoluteArcSize=1;arcSize=14;strokeWidth=2;" parent="Vdyso5Q53oxlfCYmZ2aa-7" vertex="1">
          <mxGeometry x="96.66666666666674" y="210" width="120" height="40" as="geometry" />
        </mxCell>
        <mxCell id="HCo9KH4Uc4G2conOYqk8-14" value="เก็บข้อมูลของที่ยืม" style="rounded=1;whiteSpace=wrap;html=1;absoluteArcSize=1;arcSize=14;strokeWidth=2;" parent="Vdyso5Q53oxlfCYmZ2aa-7" vertex="1">
          <mxGeometry x="106.66666666666674" y="130" width="100" height="40" as="geometry" />
        </mxCell>
        <mxCell id="Vdyso5Q53oxlfCYmZ2aa-10" value="" style="endArrow=classic;html=1;rounded=0;exitX=0.5;exitY=1;exitDx=0;exitDy=0;entryX=0.5;entryY=0;entryDx=0;entryDy=0;" edge="1" parent="Vdyso5Q53oxlfCYmZ2aa-7" source="HCo9KH4Uc4G2conOYqk8-14" target="cNE5Cq7i259optHmm0gu-1">
          <mxGeometry width="50" height="50" relative="1" as="geometry">
            <mxPoint x="-203.33333333333326" y="220" as="sourcePoint" />
            <mxPoint x="-153.33333333333326" y="170" as="targetPoint" />
          </mxGeometry>
        </mxCell>
        <mxCell id="HCo9KH4Uc4G2conOYqk8-11" value="ส่งข้อความแจ้งเตือนคืนอุปกรณ์" style="rounded=1;whiteSpace=wrap;html=1;absoluteArcSize=1;arcSize=14;strokeWidth=2;" parent="Vdyso5Q53oxlfCYmZ2aa-7" vertex="1">
          <mxGeometry x="96.66666666666676" y="370" width="120" height="40" as="geometry" />
        </mxCell>
        <mxCell id="HCo9KH4Uc4G2conOYqk8-10" value="ใกล้กำหนดคืน" style="rounded=1;whiteSpace=wrap;html=1;absoluteArcSize=1;arcSize=14;strokeWidth=2;" parent="Vdyso5Q53oxlfCYmZ2aa-7" vertex="1">
          <mxGeometry x="106.66666666666674" y="290" width="100" height="40" as="geometry" />
        </mxCell>
        <mxCell id="Vdyso5Q53oxlfCYmZ2aa-18" value="" style="endArrow=classic;html=1;rounded=0;exitX=0.5;exitY=1;exitDx=0;exitDy=0;entryX=0.5;entryY=0;entryDx=0;entryDy=0;" edge="1" parent="Vdyso5Q53oxlfCYmZ2aa-7" source="HCo9KH4Uc4G2conOYqk8-10" target="HCo9KH4Uc4G2conOYqk8-11">
          <mxGeometry width="50" height="50" relative="1" as="geometry">
            <mxPoint x="-203.33333333333326" y="220" as="sourcePoint" />
            <mxPoint x="-153.33333333333326" y="170" as="targetPoint" />
          </mxGeometry>
        </mxCell>
        <mxCell id="Vdyso5Q53oxlfCYmZ2aa-9" value="" style="endArrow=classic;html=1;rounded=0;exitX=1;exitY=0.5;exitDx=0;exitDy=0;entryX=0;entryY=0.5;entryDx=0;entryDy=0;" edge="1" parent="Vdyso5Q53oxlfCYmZ2aa-8" source="vHV5yflAuKv_XINNY09a-150" target="HCo9KH4Uc4G2conOYqk8-14">
          <mxGeometry width="50" height="50" relative="1" as="geometry">
            <mxPoint x="490" y="160" as="sourcePoint" />
            <mxPoint x="540" y="110" as="targetPoint" />
          </mxGeometry>
        </mxCell>
        <mxCell id="Vdyso5Q53oxlfCYmZ2aa-11" value="" style="endArrow=classic;html=1;rounded=0;exitX=0;exitY=0.5;exitDx=0;exitDy=0;entryX=1;entryY=0.5;entryDx=0;entryDy=0;" edge="1" parent="Vdyso5Q53oxlfCYmZ2aa-8" source="cNE5Cq7i259optHmm0gu-1" target="HCo9KH4Uc4G2conOYqk8-16">
          <mxGeometry width="50" height="50" relative="1" as="geometry">
            <mxPoint x="410" y="220" as="sourcePoint" />
            <mxPoint x="460" y="170" as="targetPoint" />
          </mxGeometry>
        </mxCell>
        <mxCell id="Vdyso5Q53oxlfCYmZ2aa-14" value="" style="endArrow=classic;html=1;rounded=0;exitX=0;exitY=0.5;exitDx=0;exitDy=0;entryX=1;entryY=0.5;entryDx=0;entryDy=0;" edge="1" parent="Vdyso5Q53oxlfCYmZ2aa-8" source="HCo9KH4Uc4G2conOYqk8-16" target="Vdyso5Q53oxlfCYmZ2aa-13">
          <mxGeometry width="50" height="50" relative="1" as="geometry">
            <mxPoint x="410" y="220" as="sourcePoint" />
            <mxPoint x="460" y="170" as="targetPoint" />
          </mxGeometry>
        </mxCell>
        <mxCell id="Vdyso5Q53oxlfCYmZ2aa-17" value="" style="endArrow=classic;html=1;rounded=0;exitX=0.5;exitY=1;exitDx=0;exitDy=0;entryX=0;entryY=0.5;entryDx=0;entryDy=0;" edge="1" parent="Vdyso5Q53oxlfCYmZ2aa-8" source="Vdyso5Q53oxlfCYmZ2aa-13" target="HCo9KH4Uc4G2conOYqk8-10">
          <mxGeometry width="50" height="50" relative="1" as="geometry">
            <mxPoint x="410" y="220" as="sourcePoint" />
            <mxPoint x="460" y="170" as="targetPoint" />
            <Array as="points">
              <mxPoint x="228" y="310" />
            </Array>
          </mxGeometry>
        </mxCell>
        <mxCell id="Vdyso5Q53oxlfCYmZ2aa-19" value="" style="endArrow=classic;html=1;rounded=0;exitX=0;exitY=0.5;exitDx=0;exitDy=0;entryX=1;entryY=0.5;entryDx=0;entryDy=0;" edge="1" parent="Vdyso5Q53oxlfCYmZ2aa-8" source="HCo9KH4Uc4G2conOYqk8-11" target="Vdyso5Q53oxlfCYmZ2aa-16">
          <mxGeometry width="50" height="50" relative="1" as="geometry">
            <mxPoint x="410" y="220" as="sourcePoint" />
            <mxPoint x="460" y="170" as="targetPoint" />
          </mxGeometry>
        </mxCell>
      </root>
    </mxGraphModel>
  </diagram>
  <diagram id="iNOxvxUu0UQKGmShVrS2" name="State">
    <mxGraphModel dx="989" dy="543" grid="1" gridSize="10" guides="1" tooltips="1" connect="1" arrows="1" fold="1" page="1" pageScale="1" pageWidth="850" pageHeight="1100" math="0" shadow="0">
      <root>
        <mxCell id="0" />
        <mxCell id="1" parent="0" />
        <mxCell id="x5irtaY8nl82BIYJjmnR-1" value="" style="ellipse;whiteSpace=wrap;html=1;aspect=fixed;" vertex="1" parent="1">
          <mxGeometry x="40" y="40" width="40" height="40" as="geometry" />
        </mxCell>
        <mxCell id="x5irtaY8nl82BIYJjmnR-3" value="แสกน QR Code Line" style="rounded=1;whiteSpace=wrap;html=1;" vertex="1" parent="1">
          <mxGeometry x="200" y="40" width="160" height="40" as="geometry" />
        </mxCell>
        <mxCell id="x5irtaY8nl82BIYJjmnR-7" value="เลือกอุปกรณ์ที่ต้องการยืม" style="rounded=1;whiteSpace=wrap;html=1;" vertex="1" parent="1">
          <mxGeometry x="480" y="40" width="160" height="40" as="geometry" />
        </mxCell>
        <mxCell id="x5irtaY8nl82BIYJjmnR-8" value="" style="endArrow=classic;html=1;rounded=0;exitX=1;exitY=0.5;exitDx=0;exitDy=0;entryX=0;entryY=0.5;entryDx=0;entryDy=0;" edge="1" parent="1" source="x5irtaY8nl82BIYJjmnR-1" target="x5irtaY8nl82BIYJjmnR-3">
          <mxGeometry width="50" height="50" relative="1" as="geometry">
            <mxPoint x="165" y="85" as="sourcePoint" />
            <mxPoint x="180" y="70" as="targetPoint" />
          </mxGeometry>
        </mxCell>
        <mxCell id="x5irtaY8nl82BIYJjmnR-9" value="ต้องการยืมอุปกรณ์" style="text;html=1;align=center;verticalAlign=middle;resizable=0;points=[];autosize=1;strokeColor=none;fillColor=none;" vertex="1" parent="1">
          <mxGeometry x="80" y="30" width="110" height="30" as="geometry" />
        </mxCell>
        <mxCell id="x5irtaY8nl82BIYJjmnR-10" value="" style="endArrow=classic;html=1;rounded=0;exitX=1;exitY=0.5;exitDx=0;exitDy=0;entryX=0;entryY=0.5;entryDx=0;entryDy=0;" edge="1" parent="1" source="x5irtaY8nl82BIYJjmnR-3" target="x5irtaY8nl82BIYJjmnR-7">
          <mxGeometry width="50" height="50" relative="1" as="geometry">
            <mxPoint x="410" y="85" as="sourcePoint" />
            <mxPoint x="450" y="70" as="targetPoint" />
          </mxGeometry>
        </mxCell>
        <mxCell id="x5irtaY8nl82BIYJjmnR-11" value="เพิ่มเพื่อนในไลน์" style="text;html=1;align=center;verticalAlign=middle;resizable=0;points=[];autosize=1;strokeColor=none;fillColor=none;" vertex="1" parent="1">
          <mxGeometry x="370" y="30" width="100" height="30" as="geometry" />
        </mxCell>
        <mxCell id="x5irtaY8nl82BIYJjmnR-12" value="" style="endArrow=classic;html=1;rounded=0;exitX=1;exitY=0.5;exitDx=0;exitDy=0;entryX=0.5;entryY=0;entryDx=0;entryDy=0;" edge="1" parent="1" source="x5irtaY8nl82BIYJjmnR-7" target="x5irtaY8nl82BIYJjmnR-13">
          <mxGeometry width="50" height="50" relative="1" as="geometry">
            <mxPoint x="670" y="80" as="sourcePoint" />
            <mxPoint x="740" y="60" as="targetPoint" />
            <Array as="points">
              <mxPoint x="740" y="60" />
            </Array>
          </mxGeometry>
        </mxCell>
        <mxCell id="x5irtaY8nl82BIYJjmnR-13" value="ได้รับอุปกรณ์" style="rounded=1;whiteSpace=wrap;html=1;" vertex="1" parent="1">
          <mxGeometry x="680" y="120" width="120" height="40" as="geometry" />
        </mxCell>
        <mxCell id="x5irtaY8nl82BIYJjmnR-14" value="แสกน QR Code ของอุปกรณ์" style="text;html=1;align=center;verticalAlign=middle;resizable=0;points=[];autosize=1;strokeColor=none;fillColor=none;" vertex="1" parent="1">
          <mxGeometry x="640" y="30" width="170" height="30" as="geometry" />
        </mxCell>
        <mxCell id="x5irtaY8nl82BIYJjmnR-16" value="" style="endArrow=classic;html=1;rounded=0;exitX=0;exitY=0.5;exitDx=0;exitDy=0;entryX=1;entryY=0.5;entryDx=0;entryDy=0;" edge="1" parent="1" source="x5irtaY8nl82BIYJjmnR-13" target="x5irtaY8nl82BIYJjmnR-17">
          <mxGeometry width="50" height="50" relative="1" as="geometry">
            <mxPoint x="400" y="260" as="sourcePoint" />
            <mxPoint x="600" y="140" as="targetPoint" />
          </mxGeometry>
        </mxCell>
        <mxCell id="x5irtaY8nl82BIYJjmnR-17" value="นักศึกษาได้รับแจ้งวันและเวลาในการคืนอุปกรณ์" style="rounded=1;whiteSpace=wrap;html=1;" vertex="1" parent="1">
          <mxGeometry x="320" y="120" width="160" height="40" as="geometry" />
        </mxCell>
        <mxCell id="x5irtaY8nl82BIYJjmnR-18" value="แจ้งวันและเวลาในการคืนอุปกรณ์" style="text;html=1;align=center;verticalAlign=middle;resizable=0;points=[];autosize=1;strokeColor=none;fillColor=none;" vertex="1" parent="1">
          <mxGeometry x="490" y="110" width="180" height="30" as="geometry" />
        </mxCell>
        <mxCell id="x5irtaY8nl82BIYJjmnR-20" value="แจ้งเตือนกำหนดวันและเวลาในการคืนอุปกรณ์" style="rounded=1;whiteSpace=wrap;html=1;" vertex="1" parent="1">
          <mxGeometry x="320" y="240" width="160" height="40" as="geometry" />
        </mxCell>
        <mxCell id="x5irtaY8nl82BIYJjmnR-22" value="คืนอุปกรณ์" style="text;html=1;align=center;verticalAlign=middle;resizable=0;points=[];autosize=1;strokeColor=none;fillColor=none;" vertex="1" parent="1">
          <mxGeometry x="480" y="230" width="80" height="30" as="geometry" />
        </mxCell>
        <mxCell id="x5irtaY8nl82BIYJjmnR-23" value="ไม่คืนอุปกรณ์" style="text;html=1;align=center;verticalAlign=middle;resizable=0;points=[];autosize=1;strokeColor=none;fillColor=none;" vertex="1" parent="1">
          <mxGeometry x="235" y="230" width="90" height="30" as="geometry" />
        </mxCell>
        <mxCell id="x5irtaY8nl82BIYJjmnR-24" value="อุปกรณ์อยู่ใน Store" style="rounded=1;whiteSpace=wrap;html=1;" vertex="1" parent="1">
          <mxGeometry x="560" y="240" width="120" height="40" as="geometry" />
        </mxCell>
        <mxCell id="x5irtaY8nl82BIYJjmnR-26" value="" style="endArrow=classic;html=1;rounded=0;exitX=0.5;exitY=1;exitDx=0;exitDy=0;entryX=0.5;entryY=0;entryDx=0;entryDy=0;" edge="1" parent="1" source="x5irtaY8nl82BIYJjmnR-17" target="x5irtaY8nl82BIYJjmnR-20">
          <mxGeometry width="50" height="50" relative="1" as="geometry">
            <mxPoint x="400" y="240" as="sourcePoint" />
            <mxPoint x="450" y="190" as="targetPoint" />
          </mxGeometry>
        </mxCell>
        <mxCell id="x5irtaY8nl82BIYJjmnR-27" value="" style="endArrow=classic;html=1;rounded=0;entryX=0;entryY=0.5;entryDx=0;entryDy=0;exitX=1;exitY=0.5;exitDx=0;exitDy=0;" edge="1" parent="1" source="x5irtaY8nl82BIYJjmnR-20" target="x5irtaY8nl82BIYJjmnR-24">
          <mxGeometry width="50" height="50" relative="1" as="geometry">
            <mxPoint x="400" y="280" as="sourcePoint" />
            <mxPoint x="450" y="230" as="targetPoint" />
          </mxGeometry>
        </mxCell>
        <mxCell id="x5irtaY8nl82BIYJjmnR-28" value="ส่งแจ้งเตือนเข้าไป Line อีกรอบ" style="rounded=1;whiteSpace=wrap;html=1;" vertex="1" parent="1">
          <mxGeometry x="80" y="240" width="160" height="40" as="geometry" />
        </mxCell>
        <mxCell id="x5irtaY8nl82BIYJjmnR-29" value="" style="endArrow=classic;html=1;rounded=0;entryX=1;entryY=0.5;entryDx=0;entryDy=0;exitX=0;exitY=0.5;exitDx=0;exitDy=0;" edge="1" parent="1" source="x5irtaY8nl82BIYJjmnR-20" target="x5irtaY8nl82BIYJjmnR-28">
          <mxGeometry width="50" height="50" relative="1" as="geometry">
            <mxPoint x="400" y="270" as="sourcePoint" />
            <mxPoint x="450" y="220" as="targetPoint" />
          </mxGeometry>
        </mxCell>
        <mxCell id="x5irtaY8nl82BIYJjmnR-31" value="" style="ellipse;whiteSpace=wrap;html=1;aspect=fixed;" vertex="1" parent="1">
          <mxGeometry x="720" y="240" width="40" height="40" as="geometry" />
        </mxCell>
        <mxCell id="x5irtaY8nl82BIYJjmnR-32" value="" style="ellipse;whiteSpace=wrap;html=1;aspect=fixed;" vertex="1" parent="1">
          <mxGeometry x="730" y="250" width="20" height="20" as="geometry" />
        </mxCell>
        <mxCell id="x5irtaY8nl82BIYJjmnR-36" value="" style="endArrow=classic;html=1;rounded=0;entryX=0;entryY=0.5;entryDx=0;entryDy=0;exitX=1;exitY=0.5;exitDx=0;exitDy=0;" edge="1" parent="1" source="x5irtaY8nl82BIYJjmnR-24" target="x5irtaY8nl82BIYJjmnR-31">
          <mxGeometry width="50" height="50" relative="1" as="geometry">
            <mxPoint x="600" y="410" as="sourcePoint" />
            <mxPoint x="650" y="360" as="targetPoint" />
          </mxGeometry>
        </mxCell>
        <mxCell id="x5irtaY8nl82BIYJjmnR-37" value="ใกล้ครบกำหนดวันและเวลาในการคืนอุปกรณ์" style="text;html=1;align=center;verticalAlign=middle;resizable=0;points=[];autosize=1;strokeColor=none;fillColor=none;" vertex="1" parent="1">
          <mxGeometry x="390" y="180" width="240" height="30" as="geometry" />
        </mxCell>
      </root>
    </mxGraphModel>
  </diagram>
</mxfile>
